<svg version="1.0" xmlns="http://www.w3.org/2000/svg" width="666.667" height="666.667" viewBox="0 0 500 500"><path d="M408.3 17.1c-2.4 1.2-5.5 3.5-6.9 5.3-4.7 5.5-5.6 9-5.5 21.9.2 20.4-4.2 39.1-13.1 55.7-4.5 8.3-18.6 30-19.5 30-.4 0-4.9-2.8-10.1-6.1-23.2-15.1-53.8-26.1-80.4-29-14.3-1.6-43.6-.6-55.8 2-27.3 5.6-49.7 14.6-70.8 28.5l-8.2 5.4-6.4-9.2C118.3 102.5 111 87 107.4 70.5c-.9-3.9-1.9-14-2.3-22.5-.8-16.5-1.4-18.8-5.6-23.9-6.4-7.5-19.3-10-28.1-5.4-9.9 5.2-31.1 34.1-42.3 57.4-10.5 21.9-16 41.4-18.2 64.6-3.9 41.1 12.7 87 43.5 120l6.8 7.3-.1 50.3c-.2 46.2-.3 50.3-1.9 51.4-7.9 5.6-10 7.5-13.8 12.6-7.5 10-8.4 14.9-8.4 43.1 0 25.3.6 30 5 38.6 4.6 9 15.3 17.9 26 21.6 5.3 1.8 11.3 1.9 182.5 1.9 165.4 0 177.4-.1 182.4-1.7 14.4-4.7 25.3-15.9 29.8-30.7 2.4-7.5 2.6-49.7.4-57.6-3-10.8-9.6-20.1-18.2-25.6l-4.9-3.2v-99.8l8.1-9.2c20.5-23.4 35.4-52.9 40.5-80.2 2.8-14.8 2.6-41.1-.5-56.4-5.6-28.3-18.9-58.2-35.8-80.4-11.2-14.7-19.7-24-23.7-25.8-5.7-2.6-14.9-2.5-20.3.2zm22.1 35.4c17.3 21.8 29.1 46.8 34.7 73.5 2.6 12.6 3.1 36.1 1 47.9-3.2 17.8-12.9 40.2-24.4 56.3-4.8 6.8-6.3 8.4-6.9 7-.3-.9-2.2-6.7-4.1-12.9-4.5-14.1-12.8-31.6-21-44.1-6.4-9.8-18.8-25.2-24.6-30.6-1.7-1.7-3.1-3.4-3.1-4 0-.5 4-7.1 8.9-14.5 19.4-29.7 26.7-50.1 27.8-77.9l.6-14.4 2.4 2.9c1.3 1.5 5.2 6.4 8.7 10.8zM84.4 74c4.5 20.7 14 41 29.9 63.4l5.6 7.9-7.1 7.6c-14.6 15.6-26.2 33-34.8 52.1-4.6 10.2-11 28.5-11 31.5 0 7.7-16.9-18.6-24.9-38.7-10.8-27.4-11.2-58.9-.9-90.3 6.2-19.3 20.4-44.2 34.5-60.9l5.8-6.9.7 13.4c.3 7.4 1.4 16.8 2.2 20.9zM272 118.6c.7.7.9 43.2.8 123l-.3 121.9-21.7.3-21.8.2V119l2.3-.5c7.1-1.6 39.1-1.5 40.7.1zm42.9 11.1c18 7.7 31.6 16.4 46.5 29.7 31 27.8 49.8 65.2 54.5 108.8.6 5.4 1.1 29.1 1.1 52.8v43H296V123.1l5.3 1.5c2.8.9 9 3.2 13.6 5.1zM205 244v120l-60.2-.2-60.3-.3V317c.1-39.3.3-48.2 1.8-57.5 3.2-20 6.8-31.6 15.8-50 18.6-38.4 52.1-68.4 92.4-82.6 4.4-1.5 8.6-2.8 9.3-2.9.9 0 1.2 24.6 1.2 120zm221.3 144.1c5.1 1.4 11.2 7.1 13.2 12.2 1.3 3.6 1.6 8 1.3 27.2l-.3 23-3.2 4.7c-2.1 3-4.9 5.4-8 7l-4.8 2.3-171 .3C129 465 81 464.7 77 463.9c-4.4-.9-6.4-2-10.1-5.8-2.9-2.8-5.1-6.1-5.8-8.6-1.4-5.2-1.4-42.7 0-47.9 1.3-4.7 8.5-12.1 13.1-13.5 4.8-1.4 347.1-1.4 352.1 0z"/><path d="M104.5 396.3c-5.5 2.2-9 4.5-12.7 8.4-14.4 14.9-9.3 40 10 49.5 6.7 3.3 18.7 3.3 25.4 0 19.6-9.7 24.5-35.4 9.5-50-6.7-6.5-11.9-8.7-21.2-8.9-4.6-.1-9.3.3-11 1zm15.2 23.9c2.8 2.7 3 7.7.4 10.9s-8.6 3.2-11.2 0c-6.1-7.6 3.8-17.5 10.8-10.9zM194.6 396.6c-12.9 4.7-21.7 18.5-20.3 31.9 1.5 14.9 13.2 26.7 28.1 28.2 15.9 1.6 30.9-10 33.4-25.9 2.1-14.1-4.3-26.4-17-32.7-5.2-2.6-7.2-3.1-13.2-3-3.9 0-8.9.7-11 1.5zm16.1 23.6c6.1 5.7-.9 16.2-8.4 12.6-7.7-3.7-5.3-14.7 3.1-14.8 1.7 0 4 .9 5.3 2.2zM285.7 396.4c-13.5 5-21.5 17.4-20.5 31.7.9 11.3 7.9 21.5 18.2 26.1 7.1 3.1 18.1 3.1 25.2 0 5.9-2.7 12.3-8.9 15.5-15.1 3.3-6.5 3.7-16.9.9-24.3-2.5-6.6-8.7-13.6-15.1-16.9-5.5-2.8-18.5-3.7-24.2-1.5zm15.8 24.1c3.1 3 3.2 6.6.2 10.1-1.7 2-3.3 2.7-5.7 2.7-3.9 0-8-4-8-7.9 0-3.5 4.2-7.4 8-7.4 1.9 0 4 .9 5.5 2.5zM373.3 398c-6.5 3.3-11.9 8.6-15 14.9-2.7 5.5-2.5 21.2.4 26.6 6.2 11.5 18.7 18.5 30.9 17.2 22.6-2.3 35.6-27.8 23.9-46.7-6.1-9.7-14.2-14.3-26-14.8-7.3-.3-8.5-.1-14.2 2.8zm17.9 21.4c4.8 3.6 4 10.8-1.5 13.4-7.6 3.6-14.2-6.4-8.2-12.3 2.7-2.7 7-3.2 9.7-1.1z"/></svg>