<?xml version="1.0" encoding="UTF-8"?>
<!DOCTYPE svg PUBLIC "-//W3C//DTD SVG 1.1//EN" "http://www.w3.org/Graphics/SVG/1.1/DTD/svg11.dtd">
<svg xmlns="http://www.w3.org/2000/svg" version="1.1" width="2083px" height="2083px" style="shape-rendering:geometricPrecision; text-rendering:geometricPrecision; image-rendering:optimizeQuality; fill-rule:evenodd; clip-rule:evenodd" xmlns:xlink="http://www.w3.org/1999/xlink">
<g><path style="opacity:1" fill="#000000" d="M 1732.5,61.5 C 1752.83,59.7882 1772.16,63.2882 1790.5,72C 1807.3,85.1301 1822.46,99.9634 1836,116.5C 1930.08,223.508 1994.08,346.841 2028,486.5C 2063.58,642.178 2044.25,790.512 1970,931.5C 1946.88,974.927 1920.21,1015.93 1890,1054.5C 1871.71,1076.46 1853.04,1098.13 1834,1119.5C 1833.33,1258.17 1833.33,1396.83 1834,1535.5C 1883.06,1562.58 1915.06,1603.24 1930,1657.5C 1934.37,1693.86 1936.2,1730.36 1935.5,1767C 1935.86,1803.91 1934.36,1840.75 1931,1877.5C 1917.83,1943.34 1880.66,1990.17 1819.5,2018C 1811.07,2021.48 1802.41,2024.14 1793.5,2026C 1774.54,2027.77 1755.54,2028.77 1736.5,2029C 1505.67,2030.13 1274.84,2030.63 1044,2030.5C 813.497,2030.63 582.997,2030.13 352.5,2029C 336.485,2028.67 320.485,2028 304.5,2027C 288.19,2025.56 272.857,2020.9 258.5,2013C 220.744,1993.24 191.577,1964.74 171,1927.5C 158.997,1900.49 153.33,1872.16 154,1842.5C 153.333,1796.5 153.333,1750.5 154,1704.5C 154.053,1680.35 157.387,1656.68 164,1633.5C 180.813,1594.35 207.313,1563.52 243.5,1541C 247.745,1537.94 249.911,1533.78 250,1528.5C 251.042,1517.52 251.709,1506.52 252,1495.5C 253.516,1368.84 253.849,1242.17 253,1115.5C 171.073,1034.47 111.407,939.142 74,829.5C 39.7934,726.272 33.1267,621.272 54,514.5C 70.8653,427.451 101.199,345.451 145,268.5C 176.838,212.481 213.838,160.148 256,111.5C 266.977,99.182 279.143,88.3487 292.5,79C 316.421,66.8068 341.421,64.1401 367.5,71C 402.964,80.4617 424.798,102.962 433,138.5C 436.264,173.781 438.931,209.115 441,244.5C 446.073,300.792 461.406,354.125 487,404.5C 512.778,453.238 542.111,499.571 575,543.5C 752.17,418.75 948.67,370.25 1164.5,398C 1262.39,414.407 1354.39,447.074 1440.5,496C 1464.42,511.21 1488.58,526.043 1513,540.5C 1547.42,494.024 1578.09,445.024 1605,393.5C 1629.02,340.745 1643.02,285.411 1647,227.5C 1648.12,201.514 1648.79,175.514 1649,149.5C 1651.65,110.029 1671.15,82.5295 1707.5,67C 1715.82,64.4391 1724.15,62.6058 1732.5,61.5 Z M 1746.5,163.5 C 1790.22,212.069 1828.39,264.735 1861,321.5C 1896.41,386.052 1921.74,454.385 1937,526.5C 1946.04,583.555 1948.37,640.888 1944,698.5C 1940.73,728.168 1934.4,757.168 1925,785.5C 1901.61,856.963 1867.28,922.296 1822,981.5C 1819.3,984.538 1816.3,987.205 1813,989.5C 1804.29,964.691 1795.95,939.691 1788,914.5C 1746.37,799.484 1682.37,699.151 1596,613.5C 1594.09,611.252 1592.59,608.752 1591.5,606C 1618.04,563.767 1644.2,521.267 1670,478.5C 1697.55,430.728 1717.89,380.061 1731,326.5C 1738.23,294.221 1742.56,261.554 1744,228.5C 1744.97,206.836 1745.81,185.169 1746.5,163.5 Z M 337.5,167.5 C 338.314,169.631 338.814,171.964 339,174.5C 340.106,213.981 343.106,253.315 348,292.5C 356.843,340.696 371.51,387.029 392,431.5C 410.467,470.452 431.467,507.786 455,543.5C 469.361,563.695 483.528,584.029 497.5,604.5C 481.851,621.983 466.018,639.316 450,656.5C 365.718,753.047 308.218,864.047 277.5,989.5C 275.345,989.628 273.345,989.128 271.5,988C 268,984.5 264.5,981 261,977.5C 123.851,789.462 103.518,589.129 200,376.5C 236.231,300.181 282.064,230.515 337.5,167.5 Z M 1035.5,488.5 C 1057.84,488.61 1080.17,489.11 1102.5,490C 1112.61,490.347 1122.61,491.514 1132.5,493.5C 1134.05,534.476 1134.88,575.476 1135,616.5C 1135.48,915.5 1135.31,1214.5 1134.5,1513.5C 1074.5,1514.14 1014.5,1514.81 954.5,1515.5C 954.5,1175.5 954.5,835.5 954.5,495.5C 964.382,493.302 974.382,491.802 984.5,491C 1001.66,490.165 1018.66,489.332 1035.5,488.5 Z M 1233.5,513.5 C 1322.65,538.737 1402.99,580.237 1474.5,638C 1630.6,767.346 1716.77,933.846 1733,1137.5C 1733.89,1160.16 1734.56,1182.83 1735,1205.5C 1736.29,1308.83 1736.79,1412.16 1736.5,1515.5C 1568.83,1515.5 1401.17,1515.5 1233.5,1515.5C 1233.5,1181.5 1233.5,847.5 1233.5,513.5 Z M 847.5,516.5 C 849.138,520.876 849.971,525.542 850,530.5C 851.046,561.491 851.713,592.491 852,623.5C 853.171,920.832 853.671,1218.17 853.5,1515.5C 686.5,1514.82 519.5,1514.15 352.5,1513.5C 352.333,1402.17 352.5,1290.83 353,1179.5C 352.556,1076.38 374.556,978.379 419,885.5C 495.416,725.749 614.916,610.916 777.5,541C 800.615,531.908 823.948,523.741 847.5,516.5 Z M 673.5,1612.5 C 919.167,1612.33 1164.83,1612.5 1410.5,1613C 1511.5,1613.33 1612.5,1614 1713.5,1615C 1734.19,1615.19 1754.85,1615.86 1775.5,1617C 1800.05,1626.88 1818.22,1643.71 1830,1667.5C 1832.97,1676.93 1834.63,1686.6 1835,1696.5C 1835.6,1756.17 1835.27,1815.84 1834,1875.5C 1824.02,1894.48 1810.18,1909.98 1792.5,1922C 1784.29,1926.27 1775.96,1930.27 1767.5,1934C 1342.5,1935.22 917.501,1935.56 492.5,1935C 442.494,1934.72 392.494,1934.06 342.5,1933C 324.843,1934.17 308.51,1930.17 293.5,1921C 278.398,1909.24 266.231,1895.07 257,1878.5C 254.567,1873.1 253.234,1867.43 253,1861.5C 251.04,1831.87 250.206,1802.2 250.5,1772.5C 249.922,1740.09 251.088,1707.76 254,1675.5C 264.067,1650.09 281.234,1630.93 305.5,1618C 311.085,1616.81 316.751,1616.15 322.5,1616C 439.66,1614.32 556.66,1613.15 673.5,1612.5 Z M 472.5,1741.5 C 489.691,1741.2 500.858,1749.2 506,1765.5C 508.606,1793.23 496.106,1806.06 468.5,1804C 455.286,1800.1 447.786,1791.27 446,1777.5C 445.251,1766.16 449.085,1756.66 457.5,1749C 462.045,1745.39 467.045,1742.89 472.5,1741.5 Z M 849.5,1741.5 C 870.921,1740.85 883.254,1751.02 886.5,1772C 884.305,1790.7 873.972,1801.86 855.5,1805.5C 833.109,1802.03 822.609,1789.03 824,1766.5C 827.79,1753.21 836.29,1744.88 849.5,1741.5 Z M 1227.5,1741.5 C 1245.1,1741.27 1257.26,1749.27 1264,1765.5C 1265.9,1774.79 1263.9,1783.12 1258,1790.5C 1244.51,1806.44 1229.35,1808.28 1212.5,1796C 1194.16,1777.35 1195.83,1760.68 1217.5,1746C 1220.89,1744.38 1224.23,1742.88 1227.5,1741.5 Z M 1609.5,1741.5 C 1629.33,1742.41 1640,1752.74 1641.5,1772.5C 1639.7,1791.96 1629.04,1802.96 1609.5,1805.5C 1587.38,1801.21 1577.88,1787.88 1581,1765.5C 1586.14,1752.19 1595.64,1744.19 1609.5,1741.5 Z"/></g>
<g><path style="opacity:1" fill="#000000" d="M 853.5,1644.5 C 896.538,1645.27 931.704,1662.27 959,1695.5C 984.658,1732.77 990.658,1773.1 977,1816.5C 964.221,1851.22 941.054,1876.39 907.5,1892C 852.613,1913.02 803.779,1903.52 761,1863.5C 723.638,1821 715.305,1773.33 736,1720.5C 759.822,1671.34 798.989,1646.01 853.5,1644.5 Z M 849.5,1741.5 C 836.29,1744.88 827.79,1753.21 824,1766.5C 822.609,1789.03 833.109,1802.03 855.5,1805.5C 873.972,1801.86 884.305,1790.7 886.5,1772C 883.254,1751.02 870.921,1740.85 849.5,1741.5 Z"/></g>
<g><path style="opacity:1" fill="#000000" d="M 1594.5,1644.5 C 1621.65,1643.41 1647.65,1648.25 1672.5,1659C 1721.43,1687.68 1743.93,1730.51 1740,1787.5C 1732.05,1837.77 1704.89,1873.27 1658.5,1894C 1593.36,1914.51 1540.53,1897.34 1500,1842.5C 1492.18,1831.05 1487.51,1818.38 1486,1804.5C 1482.69,1782.83 1482.69,1761.16 1486,1739.5C 1489.06,1722.05 1496.39,1706.72 1508,1693.5C 1525.59,1673.58 1546.76,1658.74 1571.5,1649C 1579.11,1646.46 1586.77,1644.96 1594.5,1644.5 Z M 1609.5,1741.5 C 1595.64,1744.19 1586.14,1752.19 1581,1765.5C 1577.88,1787.88 1587.38,1801.21 1609.5,1805.5C 1629.04,1802.96 1639.7,1791.96 1641.5,1772.5C 1640,1752.74 1629.33,1742.41 1609.5,1741.5 Z"/></g>
<g><path style="opacity:1" fill="#000000" d="M 462.5,1645.5 C 516.451,1640.73 558.284,1660.73 588,1705.5C 609.511,1743.98 611.844,1783.65 595,1824.5C 564.48,1885.61 515.313,1910.78 447.5,1900C 403.647,1888.49 373.147,1861.66 356,1819.5C 336.761,1762.96 348.927,1714.46 392.5,1674C 412.706,1656.55 436.039,1647.05 462.5,1645.5 Z M 472.5,1741.5 C 467.045,1742.89 462.045,1745.39 457.5,1749C 449.085,1756.66 445.251,1766.16 446,1777.5C 447.786,1791.27 455.286,1800.1 468.5,1804C 496.106,1806.06 508.606,1793.23 506,1765.5C 500.858,1749.2 489.691,1741.2 472.5,1741.5 Z"/></g>
<g><path style="opacity:1" fill="#000000" d="M 1210.5,1645.5 C 1234.94,1643.98 1258.94,1646.48 1282.5,1653C 1315.03,1667.87 1338.53,1691.7 1353,1724.5C 1375.9,1798.5 1353.73,1854.33 1286.5,1892C 1260.9,1901.45 1234.57,1904.12 1207.5,1900C 1154.48,1888.32 1120.98,1856.15 1107,1803.5C 1095.76,1745.18 1113.92,1698.68 1161.5,1664C 1176.66,1654.34 1193,1648.17 1210.5,1645.5 Z M 1227.5,1741.5 C 1224.23,1742.88 1220.89,1744.38 1217.5,1746C 1195.83,1760.68 1194.16,1777.35 1212.5,1796C 1229.35,1808.28 1244.51,1806.44 1258,1790.5C 1263.9,1783.12 1265.9,1774.79 1264,1765.5C 1257.26,1749.27 1245.1,1741.27 1227.5,1741.5 Z"/></g>
</svg>
