<?xml version="1.0" standalone="no"?>
<!DOCTYPE svg PUBLIC "-//W3C//DTD SVG 20010904//EN"
 "http://www.w3.org/TR/2001/REC-SVG-20010904/DTD/svg10.dtd">
<svg version="1.0" xmlns="http://www.w3.org/2000/svg"
 width="500.000000pt" height="500.000000pt" viewBox="0 0 500.000000 500.000000"
 preserveAspectRatio="xMidYMid meet">

<g transform="translate(0.000000,500.000000) scale(0.100000,-0.100000)"
fill="#000000" stroke="none">
<path d="M4083 4829 c-24 -12 -55 -35 -69 -53 -47 -55 -56 -90 -55 -219 2
-204 -42 -391 -131 -557 -45 -83 -186 -300 -195 -300 -4 0 -49 28 -101 61
-232 151 -538 261 -804 290 -143 16 -436 6 -558 -20 -273 -56 -497 -146 -708
-285 l-82 -54 -64 92 c-133 191 -206 346 -242 511 -9 39 -19 140 -23 225 -8
165 -14 188 -56 239 -64 75 -193 100 -281 54 -99 -52 -311 -341 -423 -574
-105 -219 -160 -414 -182 -646 -39 -411 127 -870 435 -1200 l68 -73 -1 -503
c-2 -462 -3 -503 -19 -514 -79 -56 -100 -75 -138 -126 -75 -100 -84 -149 -84
-431 0 -253 6 -300 50 -386 46 -90 153 -179 260 -216 53 -18 113 -19 1825 -19
1654 0 1774 1 1824 17 144 47 253 159 298 307 24 75 26 497 4 576 -30 108 -96
201 -182 256 l-49 32 0 499 0 499 81 92 c205 234 354 529 405 802 28 148 26
411 -5 564 -56 283 -189 582 -358 804 -112 147 -197 240 -237 258 -57 26 -149
25 -203 -2z m221 -354 c173 -218 291 -468 347 -735 26 -126 31 -361 10 -479
-32 -178 -129 -402 -244 -563 -48 -68 -63 -84 -69 -70 -3 9 -22 67 -41 129
-45 141 -128 316 -210 441 -64 98 -188 252 -246 306 -17 17 -31 34 -31 40 0 5
40 71 89 145 194 297 267 501 278 779 l6 144 24 -29 c13 -15 52 -64 87 -108z
m-3460 -215 c45 -207 140 -410 299 -634 l56 -79 -71 -76 c-146 -156 -262 -330
-348 -521 -46 -102 -110 -285 -110 -315 0 -77 -169 186 -249 387 -108 274
-112 589 -9 903 62 193 204 442 345 609 l58 69 7 -134 c3 -74 14 -168 22 -209z
m1876 -446 c7 -7 9 -432 8 -1230 l-3 -1219 -217 -3 -218 -2 0 1225 0 1225 23
5 c71 16 391 15 407 -1z m429 -111 c180 -77 316 -164 465 -297 310 -278 498
-652 545 -1088 6 -54 11 -291 11 -528 l0 -430 -605 0 -605 0 0 1204 0 1205 53
-15 c28 -9 90 -32 136 -51z m-1099 -1143 l0 -1200 -602 2 -603 3 0 465 c1 393
3 482 18 575 32 200 68 316 158 500 186 384 521 684 924 826 44 15 86 28 93
29 9 0 12 -246 12 -1200z m2213 -1441 c51 -14 112 -71 132 -122 13 -36 16 -80
13 -272 l-3 -230 -32 -47 c-21 -30 -49 -54 -80 -70 l-48 -23 -1710 -3 c-1245
-2 -1725 1 -1765 9 -44 9 -64 20 -101 58 -29 28 -51 61 -58 86 -14 52 -14 427
0 479 13 47 85 121 131 135 48 14 3471 14 3521 0z"/>
<path d="M1045 1037 c-55 -22 -90 -45 -127 -84 -144 -149 -93 -400 100 -495
67 -33 187 -33 254 0 196 97 245 354 95 500 -67 65 -119 87 -212 89 -46 1 -93
-3 -110 -10z m152 -239 c28 -27 30 -77 4 -109 -26 -32 -86 -32 -112 0 -61 76
38 175 108 109z"/>
<path d="M1946 1034 c-129 -47 -217 -185 -203 -319 15 -149 132 -267 281 -282
159 -16 309 100 334 259 21 141 -43 264 -170 327 -52 26 -72 31 -132 30 -39 0
-89 -7 -110 -15z m161 -236 c61 -57 -9 -162 -84 -126 -77 37 -53 147 31 148
17 0 40 -9 53 -22z"/>
<path d="M2857 1036 c-135 -50 -215 -174 -205 -317 9 -113 79 -215 182 -261
71 -31 181 -31 252 0 59 27 123 89 155 151 33 65 37 169 9 243 -25 66 -87 136
-151 169 -55 28 -185 37 -242 15z m158 -241 c31 -30 32 -66 2 -101 -17 -20
-33 -27 -57 -27 -39 0 -80 40 -80 79 0 35 42 74 80 74 19 0 40 -9 55 -25z"/>
<path d="M3733 1020 c-65 -33 -119 -86 -150 -149 -27 -55 -25 -212 4 -266 62
-115 187 -185 309 -172 226 23 356 278 239 467 -61 97 -142 143 -260 148 -73
3 -85 1 -142 -28z m179 -214 c48 -36 40 -108 -15 -134 -76 -36 -142 64 -82
123 27 27 70 32 97 11z"/>
</g>
</svg>
